<svg xmlns="http://www.w3.org/2000/svg" width="128" height="128" viewBox="0 0 128 128">
  <defs>
    <linearGradient id="grad1" x1="0%" y1="0%" x2="100%" y2="100%">
      <stop offset="0%" style="stop-color:#4A90E2;stop-opacity:1" />
      <stop offset="100%" style="stop-color:#357ABD;stop-opacity:1" />
    </linearGradient>
  </defs>
  <!-- 배경 원 -->
  <circle cx="64" cy="64" r="60" fill="url(#grad1)" stroke="#2C5AA0" stroke-width="2"/>
  <!-- 메인 보드 -->
  <rect x="24" y="44" width="80" height="40" rx="4" fill="#2C5AA0" stroke="#1A3F73" stroke-width="2"/>
  <!-- 회로 패턴 -->
  <rect x="30" y="50" width="12" height="8" rx="1" fill="#4A90E2"/>
  <rect x="86" y="50" width="12" height="8" rx="1" fill="#4A90E2"/>
  <rect x="30" y="62" width="12" height="8" rx="1" fill="#4A90E2"/>
  <rect x="86" y="62" width="12" height="8" rx="1" fill="#4A90E2"/>
  <!-- 연결선 -->
  <line x1="42" y1="54" x2="86" y2="54" stroke="#4A90E2" stroke-width="2"/>
  <line x1="42" y1="66" x2="86" y2="66" stroke="#4A90E2" stroke-width="2"/>
  <line x1="42" y1="54" x2="42" y2="66" stroke="#4A90E2" stroke-width="2"/>
  <line x1="86" y1="54" x2="86" y2="66" stroke="#4A90E2" stroke-width="2"/>
  <!-- 중앙 프로세서 -->
  <rect x="54" y="54" width="20" height="16" rx="2" fill="#357ABD" stroke="#2C5AA0" stroke-width="1"/>
  <text x="64" y="65" text-anchor="middle" fill="#FFFFFF" font-family="Arial" font-size="8" font-weight="bold">AXON</text>
  <!-- 핀들 -->
  <circle cx="32" cy="52" r="2" fill="#FFD700"/>
  <circle cx="96" cy="52" r="2" fill="#FFD700"/>
  <circle cx="32" cy="68" r="2" fill="#FFD700"/>
  <circle cx="96" cy="68" r="2" fill="#FFD700"/>
</svg>







